<!-- Generator: Adobe Illustrator 17.0.0, SVG Export Plug-In  -->
<svg version="1.1"
	 xmlns="http://www.w3.org/2000/svg" xmlns:xlink="http://www.w3.org/1999/xlink" xmlns:a="http://ns.adobe.com/AdobeSVGViewerExtensions/3.0/"
	 x="0px" y="0px" width="478.273px" height="333.54px" viewBox="0 0 478.273 333.54" enable-background="new 0 0 478.273 333.54"
	 xml:space="preserve">
<defs>
</defs>
<g>
	<path fill="#FA9B1E" d="M148.97,81.181c-18.927,7.607-39.679,23.632-59.21,42.004c25.757-1.284,52.7,7.576,71.875,6.245
		c21.228-1.476,41.771-13.072,61.801-26.653C202.238,83.927,180.562,68.485,148.97,81.181z M166.746,70.404
		c11.523-6.899,15.055-21.779,5.312-29.437c-8.32-6.54-20.516-2.401-26.609,6.105c-4.803,6.699-5.028,15.178-1.037,20.554
		C148.808,73.543,158.186,75.529,166.746,70.404z"/>
	<path fill="#FFDC00" d="M55.371,133.691C22.064,155.992,0,224.538,0,224.538l11.004-10.746c0.461-0.83,36.787-51.135,78.756-90.607
		C77.738,123.784,65.971,126.594,55.371,133.691z M59.616,122.45c5.413,2.371,12.729,0.017,16.646-6.956
		c5.27-9.387,1.805-21.149-8.021-22.601c-8.396-1.239-15.232,6.496-16.084,14.838C51.484,114.31,54.697,120.302,59.616,122.45z"/>
	<path fill="#FFC30F" d="M254.183,123.336c-13.967-6.892-23.51-14.284-27.93-18.041c-0.941-0.847-1.877-1.694-2.818-2.526h-0.004
		l0,0l0,0c-20.029,13.582-40.569,25.178-61.797,26.653c-19.175,1.331-46.118-7.528-71.875-6.245
		c-41.969,39.473-78.295,89.777-78.756,90.607c0.409-0.412,44.319-43.785,98.816-65.548c0.022-0.012,0.051-0.02,0.07-0.031
		c15.946-6.484,32.463-11.588,53.855-13.943c33.643-3.704,77.472,0.188,117.807,8.626c14.652,3.065,68.067,17.31,88.044,14.988
		C339.141,158.051,286.991,139.528,254.183,123.336z"/>
	<g>
		<path fill="#1069B4" d="M329.874,43.898c12.671-10.384,15.039-28.581,3.632-38.55c-10.952-9.576-28.085-5.632-37.249,6.591
			c-7.913,10.557-7.435,24.328,0.356,32.213C304.649,52.288,319.042,52.767,329.874,43.898z"/>
		<path fill="#1069B4" d="M312.131,55.662c-28.768,1.059-58.132,26.383-88.695,47.102c0.903,0.803,1.805,1.613,2.707,2.426
			c0.037,0.034,0.074,0.066,0.111,0.1c4.42,3.757,13.963,11.15,27.93,18.041c32.803,16.188,84.939,34.707,115.396,34.538
			c11.849-0.983,21.499-5.412,23.293-16.876C399.627,97.766,354.971,54.085,312.131,55.662z"/>
	</g>
	<path fill="#5A5A5A" d="M158.763,245.66v-20.833c0-18.575-8.869-28.566-29.135-28.566c-7.744,0-14.782,1.546-19.846,3.233v6.758
		c3.239-0.98,10.554-3.095,19.425-3.095c15.478,0,22.52,7.172,22.52,21.534c-2.256-0.424-7.181-1.404-16.331-1.404
		c-6.331,0-32.654,0.839-32.654,22.097c0,18.434,19.565,21.253,28.434,21.253C139.761,266.637,158.763,264.244,158.763,245.66z
		 M151.864,245.66c0,12.39-12.387,14.64-20.688,14.64c-8.445,0-21.537-2.393-21.537-14.916c0-13.659,16.328-15.626,24.913-15.626
		c9.29,0,15.484,0.986,17.312,1.265V245.66z M175.372,265.65h7.036v-94.587h-7.036V265.65z M207.89,174.3h-7.744v10.415h7.744V174.3
		z M207.46,265.65v-68.262h-6.894v68.262H207.46z M248.985,266.637c8.585,0,27.587-2.393,27.587-20.977v-20.833
		c0-18.575-8.866-28.566-29.133-28.566c-7.743,0-14.782,1.546-19.849,3.233v6.758c3.234-0.98,10.557-3.095,19.426-3.095
		c15.481,0,22.52,7.172,22.52,21.534c-2.247-0.424-7.181-1.409-16.328-1.409c-6.334,0-32.653,0.844-32.653,22.102
		C220.555,263.818,240.117,266.637,248.985,266.637z M252.364,229.758c9.289,0,15.484,0.986,17.311,1.265v14.638
		c0,12.39-12.384,14.64-20.69,14.64c-8.445,0-21.537-2.393-21.537-14.916C227.449,231.725,243.779,229.758,252.364,229.758z
		 M321.192,196.118c-13.231,0-24.492,4.783-29.28,7.323v62.209h6.899v-58.132c5.768-2.247,13.372-4.361,21.676-4.361
		c15.907,0,20.13,8.024,20.13,18.011v44.482h7.039v-44.482C347.656,204.56,337.94,196.118,321.192,196.118z M393.68,266.778
		c6.758,0.001,13.512-1.27,19.846-3.668v-6.749c-6.055,2.39-12.665,3.654-19.144,3.654c-15.481,0-25.757-7.033-25.757-28.575
		c0-21.387,10.275-28.567,25.757-28.567c6.479,0,13.089,1.404,19.144,3.66v-6.755c-6.334-2.25-13.088-3.66-19.846-3.66
		c-14.498,0-31.951,6.053-31.951,35.322C361.728,260.868,379.182,266.778,393.68,266.778z M450.683,266.637
		c8.584,0,27.59-2.393,27.59-20.977v-20.832c0-18.576-8.869-28.567-29.136-28.567c-7.746,0-14.785,1.546-19.854,3.233v6.758
		c3.242-0.98,10.564-3.095,19.428-3.095c15.484,0,22.521,7.173,22.521,21.534c-2.251-0.424-7.175-1.409-16.325-1.409
		c-6.337,0-32.653,0.844-32.653,22.102C422.253,263.818,441.814,266.637,450.683,266.637z M454.059,229.758
		c9.292,0,15.486,0.986,17.312,1.265v14.638c0,12.39-12.385,14.64-20.688,14.64c-8.445,0-21.534-2.393-21.534-14.916
		C429.149,231.725,445.472,229.758,454.059,229.758z M116.165,293.56c-11.339,0-12.754,10.811-12.754,15.353
		c0,11.397,7.083,14.175,13.579,14.175c3.247,0,6.911-0.594,9.565-1.83v-3.017c-2.359,1.304-5.844,2.011-9.326,2.011
		c-5.554,0-9.451-2.128-10.275-7.676c-0.295-0.702-0.474-1.529-0.535-2.541h22.024c0-0.059,0.061-0.23,0.061-1.534
		C128.505,306.613,128.385,293.56,116.165,293.56z M106.419,307.446c0.295-6.97,3.365-11.108,9.565-11.108
		c9.153,0,9.507,9.69,9.507,11.108H106.419z M164.88,293.502c-4.844,0-8.858,1.657-11.334,2.958
		c-1.775-1.952-4.432-2.958-7.855-2.958c-5.139,0-9.565,1.947-11.632,3.017v26.158h2.95v-24.45c2.245-0.939,5.256-1.767,8.329-1.767
		c6.314,0,7.972,3.365,7.972,7.557v18.66h2.95v-18.66c0-2.064-0.351-3.785-1.003-5.311c2.304-1.064,5.607-2.245,9.446-2.245
		c6.2,0,7.852,3.365,7.852,7.557v18.66h2.952v-18.66C175.506,297.048,171.554,293.502,164.88,293.502z M194.054,293.502
		c-10.451,0-11.454,6.73-11.454,8.922v31.116h2.892v-11.811c2.481,0.889,5.253,1.418,8.15,1.418c6.139,0,13.108-2.599,13.108-14.523
		C206.75,295.508,198.898,293.502,194.054,293.502z M193.642,320.376c-2.897,0-5.73-0.535-8.15-1.599v-16.471
		c0-2.958,2.184-6.083,8.562-6.083c4.075,0,9.744,1.418,9.744,12.336C203.798,317.423,199.959,320.376,193.642,320.376z
		 M212.655,322.677h2.894v-24.501c2.242-0.657,6.081-1.657,10.571-1.779v-2.836c-6.551,0.064-11.813,2.011-13.465,2.722V322.677z
		 M240.707,293.56c-11.339,0-12.754,10.811-12.754,15.353c0,11.397,7.089,14.175,13.579,14.175c3.245,0,6.908-0.594,9.565-1.83
		v-3.017c-2.362,1.304-5.841,2.011-9.328,2.011c-5.551,0-9.448-2.128-10.272-7.676c-0.295-0.702-0.471-1.529-0.532-2.541h22.021
		c0-0.059,0.064-0.23,0.064-1.534C253.05,306.613,252.93,293.56,240.707,293.56z M230.964,307.446
		c0.292-6.97,3.365-11.108,9.566-11.108c9.149,0,9.506,9.69,9.506,11.108H230.964z M270.412,293.56
		c-11.34,0-12.754,10.811-12.754,15.353c0,11.397,7.08,14.175,13.581,14.175c3.245,0,6.908-0.594,9.563-1.83v-3.017
		c-2.362,1.304-5.847,2.011-9.328,2.011c-5.549,0-9.448-2.128-10.273-7.676c-0.295-0.702-0.471-1.529-0.529-2.541h22.021
		c0-0.059,0.062-0.23,0.062-1.534C282.754,306.613,282.632,293.56,270.412,293.56z M260.671,307.446
		c0.293-6.97,3.362-11.108,9.563-11.108c9.153,0,9.507,9.69,9.507,11.108H260.671z M300.411,293.502
		c-5.552,0-10.275,2.006-12.281,3.075v26.1h2.892v-24.392c2.42-0.941,5.609-1.824,9.091-1.824c6.677,0,8.446,3.365,8.446,7.557
		v18.66h2.952v-18.66C311.511,297.048,307.435,293.502,300.411,293.502z M338.791,294.92c-2.476-0.883-5.256-1.359-8.147-1.359
		c-6.139,0-13.11,2.54-13.11,14.528c0,13.111,7.857,15.059,12.695,15.059c10.457,0,11.462-6.729,11.462-8.913v-31.239h-2.899V294.92
		z M338.791,314.349c0,3.016-2.184,6.086-8.563,6.086c-4.072,0-9.74-1.359-9.74-12.346c0-8.799,3.896-11.807,10.155-11.807
		c2.892,0,5.729,0.585,8.147,1.59V314.349z M360.23,293.56c-11.337,0-12.755,10.811-12.755,15.353
		c0,11.397,7.087,14.175,13.582,14.175c3.245,0,6.908-0.594,9.565-1.83v-3.017c-2.359,1.304-5.847,2.011-9.331,2.011
		c-5.549,0-9.445-2.119-10.268-7.676c-0.301-0.702-0.478-1.529-0.531-2.541h22.022c0-0.059,0.059-0.23,0.059-1.534
		C372.573,306.613,372.453,293.56,360.23,293.56z M350.493,307.446c0.289-6.97,3.355-11.108,9.559-11.108
		c9.153,0,9.51,9.69,9.51,11.108H350.493z M398.499,294.92c-2.479-0.883-5.259-1.359-8.152-1.359c-6.14,0-13.108,2.54-13.108,14.528
		c0,13.111,7.853,15.059,12.696,15.059c10.447,0,11.453-6.729,11.453-8.913v-31.239h-2.889V294.92z M398.499,314.349
		c0,3.017-2.186,6.086-8.565,6.086c-4.072,0-9.744-1.359-9.744-12.346c0-8.799,3.897-11.807,10.156-11.807
		c2.894,0,5.727,0.585,8.152,1.59V314.349z M420.407,293.502c-6.143,0-13.404,2.663-13.404,14.827
		c0,12.164,7.262,14.818,13.404,14.818c6.142,0,13.406-2.654,13.406-14.818C433.813,296.165,426.549,293.502,420.407,293.502z
		 M420.407,320.435c-6.26,0-10.513-3.069-10.513-12.105c0-9.039,4.253-12.105,10.513-12.105c6.314,0,10.512,3.066,10.512,12.105
		C430.919,317.365,426.722,320.435,420.407,320.435z M439.3,322.677h2.897v-24.501c2.245-0.657,6.083-1.657,10.565-1.779v-2.836
		c-6.548,0.064-11.804,2.011-13.462,2.722V322.677z M466.054,293.56c-3.247,0-6.2,0.657-8.328,1.359v2.839
		c1.357-0.415,4.432-1.299,8.147-1.299c6.498,0,9.451,3.012,9.451,9.033c-0.944-0.181-3.011-0.593-6.853-0.593
		c-2.651,0-13.698,0.354-13.698,9.267c0,7.744,8.211,8.922,11.93,8.922c3.602,0,11.57-1.006,11.57-8.799v-8.741
		C478.273,297.759,474.558,293.56,466.054,293.56z M475.383,314.29c0,5.197-5.198,6.145-8.68,6.145
		c-3.543,0-9.036-1.006-9.036-6.268c0-5.724,6.85-6.548,10.454-6.548c3.894,0,6.49,0.412,7.262,0.528V314.29z M387.819,279.753
		h8.474l1.648-8.545h-12.17L387.819,279.753z"/>
</g>
</svg>
